# xmcd CD database file
#
# Track frame offsets:
#	150
#	29608
#	50940
#	78402
#	103415
#	128035
#	147216
#	172237
#	205566
#	221752
#
# Disc length: 3555 seconds
#
# Revision: 0
# Processed by: cddbd v1.5.2PL0 Copyright (c) Steve Scherf et al.
# Submitted via: CDex 1.51
#
DISCID=9c0de10a
DTITLE=Peter Weniger - I Mean You
DYEAR=1900
DGENRE=Jazz
TTITLE0=I Mean You
TTITLE1=You Don'tKnow What Love Is
TTITLE2=Three Coins In The Fountain
TTITLE3=Lulu's Back In Town
TTITLE4=Perdiso
TTITLE5=Bemsha Swing
TTITLE6=Body and Soul
TTITLE7=There Is No Greater Love
TTITLE8=I want to be happy
TTITLE9=Sonnymoon for two
EXTD=
EXTT0=
EXTT1=
EXTT2=
EXTT3=
EXTT4=
EXTT5=
EXTT6=
EXTT7=
EXTT8=
EXTT9=
PLAYORDER=
